PathFileType  4	(X/Y/Z) C:\Users\antoi\Documents\MyRepositories\mobilecap\ResultsAnalysis
DataRate	CameraRate	NumFrames	NumMarkers	Units	OrigDataRate	OrigDataStartFrame	OrigNumFrames
100.0	100.0	6	51	mm	100.0	125	142
Frame#	Time	r_knee			r_shank_antsup			r_ankle			r_calc			r_5meta			r_toe			L_knee			L_shank_antsup			L_ankle			L_calc			L_5meta			L_toe			r_sh2			r_sh3			r_sh4			L_sh2			L_sh3			r_thigh1			r_thigh2			r_thigh3			r_thigh4			r_thigh5			L_thigh1			L_thigh2			L_thigh3			L_thigh4			r.ASIS			r.PSIS			L.ASIS			L.PSIS			C7			R_Shoulder			L_Shoulder			R_Sternum			L_Sternum			R_humerus			R_elbow_med			R_elbow_lat			R_forearm			R_wrist_radius			R_wrist_ulna			L_humerus			L_elbow_med			L_elbow_lat			L_forearm			L_wrist_radius			L_wrist_ulna			R_HJC			L_HJC			R_HJC_reg			L_HJC_reg			
		X1	Y1	Z1	X2	Y2	Z2	X3	Y3	Z3	X4	Y4	Z4	X5	Y5	Z5	X6	Y6	Z6	X7	Y7	Z7	X8	Y8	Z8	X9	Y9	Z9	X10	Y10	Z10	X11	Y11	Z11	X12	Y12	Z12	X13	Y13	Z13	X14	Y14	Z14	X15	Y15	Z15	X16	Y16	Z16	X17	Y17	Z17	X18	Y18	Z18	X19	Y19	Z19	X20	Y20	Z20	X21	Y21	Z21	X22	Y22	Z22	X23	Y23	Z23	X24	Y24	Z24	X25	Y25	Z25	X26	Y26	Z26	X27	Y27	Z27	X28	Y28	Z28	X29	Y29	Z29	X30	Y30	Z30	X31	Y31	Z31	X32	Y32	Z32	X33	Y33	Z33	X34	Y34	Z34	X35	Y35	Z35	X36	Y36	Z36	X37	Y37	Z37	X38	Y38	Z38	X39	Y39	Z39	X40	Y40	Z40	X41	Y41	Z41	X42	Y42	Z42	X43	Y43	Z43	X44	Y44	Z44	X45	Y45	Z45	X46	Y46	Z46	X47	Y47	Z47	X48	Y48	Z48	X49	Y49	Z49	X50	Y50	Z50	X51	Y51	Z51	

125	1.24000000	1455.61070	456.22097	-163.83101	1480.51506	388.52193	-142.35686	1517.07122	87.98854	-179.98179	1453.82332	51.00958	-221.02828	1623.20950	51.73827	-154.58246	1664.39299	79.71537	-208.72129	1159.95948	458.20440	-442.60528	1145.56785	390.28221	-448.46886	937.63323	151.04399	-418.90646	860.60156	159.21536	-370.87325	981.76854	46.65387	-429.13289	1036.65791	50.07762	-376.35921	1502.17017	278.21303	-141.49444	1406.35411	372.97054	-152.77046	1421.62749	257.51265	-157.17578	1077.13876	448.82688	-453.82615	1008.02849	348.32951	-455.00625	1424.30928	767.73577	-166.43321	1462.35323	660.06273	-162.57186	1426.53157	626.95342	-116.92619	1334.53344	739.20198	-102.06587	1365.87895	626.23067	-114.83377	1323.29166	704.77524	-469.75749	1281.88722	573.24536	-464.98407	1213.09698	740.53380	-470.74382	1178.57574	603.38456	-454.60736	1390.55723	892.51714	-177.79957	1205.48774	901.91620	-241.91023	1385.53999	867.61241	-435.03700	1202.68986	897.52915	-348.05612	1265.87699	1364.28386	-312.04204	1290.17955	1298.07258	-150.64624	1360.12899	1317.03774	-463.21086	1376.53499	1278.27920	-274.19502	1384.50690	1280.38712	-318.39113	1272.32741	1058.91355	-74.34715	1241.59875	953.55986	-134.22213	1242.39615	974.05895	-63.74139	1302.14072	870.13954	-32.44794	1340.05149	757.73038	-20.22682	1299.83008	742.69820	-25.88499	1413.66904	1189.61640	-500.04029	1353.84753	972.67139	-499.28324	1388.62163	986.85821	-547.92475	1461.79276	902.60018	-537.17642	1501.57812	784.83380	-514.54668	1477.27997	768.15712	-539.47806	1325.37240	814.43238	-195.46720	1320.59534	800.60829	-395.23356	1330.45983	799.33105	-208.86819	1325.96944	792.29022	-379.25278	
126	1.25000000	1468.84464	457.07391	-163.13260	1492.55536	388.60892	-141.77103	1519.97578	87.59142	-180.01162	1455.02840	52.02780	-220.94493	1624.74023	48.49283	-154.42391	1667.05146	74.62296	-208.88388	1178.72855	456.61023	-443.44646	1162.33368	388.89740	-449.52643	946.96704	156.86181	-418.80402	871.39622	170.28854	-370.50684	984.32363	49.57956	-428.78592	1039.62224	50.03691	-376.63355	1511.46339	277.80607	-141.01454	1417.74983	375.01927	-151.79645	1430.42959	259.11332	-156.39176	1095.80527	449.72224	-454.33499	1023.45269	351.46117	-455.17932	1438.02459	768.81852	-164.86348	1475.90434	661.06076	-160.98139	1439.62235	627.88534	-115.69572	1347.91599	740.38918	-100.80931	1378.88232	627.34794	-114.05450	1338.89615	704.95341	-468.99832	1299.23107	572.92379	-465.20678	1228.38300	739.51759	-469.20304	1195.51424	601.90254	-454.36630	1405.24794	893.19433	-176.76006	1219.73175	902.70883	-241.11405	1399.97477	868.04549	-434.06612	1217.08056	897.40553	-347.37867	1278.21780	1364.69817	-308.06752	1303.97166	1297.15442	-147.06350	1372.07264	1318.32744	-460.04519	1389.24440	1278.79692	-270.94540	1397.12830	1281.12878	-315.12971	1288.33954	1057.39168	-72.13805	1257.45117	952.09840	-132.43209	1258.71197	972.26126	-61.90920	1317.80197	867.96921	-31.26625	1354.93799	755.29807	-19.59177	1314.86265	740.50387	-25.35310	1425.29572	1190.64285	-497.31125	1364.86469	973.90428	-496.62392	1399.10023	988.17660	-545.40696	1471.28480	902.96473	-536.27335	1509.89933	784.51203	-515.43924	1484.82019	768.21121	-540.08230	1339.89426	815.13672	-194.43540	1335.17466	800.89195	-394.17019	1344.53859	800.90869	-207.23462	1340.28668	792.40963	-377.61521	
127	1.26000000	1481.50342	458.25072	-161.93389	1503.67476	388.97497	-140.54021	1521.89948	87.35526	-179.84280	1455.84005	52.72673	-220.80731	1625.62911	46.28690	-153.86706	1668.79544	70.93579	-208.57583	1198.89118	454.70569	-444.36385	1180.49941	387.32352	-450.59205	957.54368	163.11438	-418.69081	884.15795	182.26721	-369.98413	987.36285	53.33807	-428.40137	1043.12252	50.38163	-377.13760	1519.60034	277.71096	-139.89188	1428.38052	377.45892	-150.44970	1438.15312	261.23017	-155.21011	1115.97630	450.35196	-454.98266	1040.40332	354.54074	-455.47701	1451.16308	770.43102	-163.10506	1489.09013	662.70096	-158.97603	1452.34679	629.41209	-114.08735	1360.73420	742.01089	-99.43479	1391.60507	628.99733	-112.95600	1355.02570	705.41487	-468.03554	1317.58558	572.70555	-465.40797	1244.04414	738.31916	-467.81568	1213.27963	600.11097	-454.36606	1419.37018	894.50030	-175.45214	1233.56812	903.99614	-240.74296	1414.25049	868.88679	-432.83398	1231.18358	897.71585	-347.17328	1290.58047	1365.52897	-304.30872	1317.73029	1296.76967	-143.70077	1383.96064	1319.99574	-457.09700	1401.86759	1279.71857	-267.85223	1409.64760	1282.24320	-312.02207	1304.72222	1056.46439	-70.02145	1273.65146	951.19515	-130.64693	1275.46194	971.07554	-60.08102	1333.82117	866.36636	-30.11554	1370.01466	753.38113	-18.96083	1330.03477	738.84667	-24.69888	1436.69049	1192.02397	-494.96393	1375.91787	975.42360	-493.89928	1409.45979	989.82349	-542.89130	1480.60296	903.65410	-535.35050	1517.88637	784.54002	-516.24773	1492.14351	768.69658	-540.63304	1353.79962	816.43307	-193.35660	1349.65471	801.58907	-393.05107	1358.18068	803.03277	-205.35612	1354.36031	792.98461	-375.74040	
128	1.27000000	1493.26627	459.53670	-160.35568	1513.72956	389.46856	-138.87036	1523.08287	87.23495	-179.57481	1456.35178	53.18528	-220.65498	1626.07692	44.92436	-153.14179	1669.85689	68.44147	-208.05882	1220.32800	452.48753	-445.34373	1200.02234	385.53328	-451.60898	969.36353	169.79179	-418.55720	898.94498	194.93518	-369.26638	991.06922	58.04410	-427.97984	1047.25248	51.25499	-377.86651	1526.59249	277.80732	-138.34997	1438.12203	380.02016	-148.85731	1444.80160	263.63752	-153.77190	1137.59348	450.65882	-455.75096	1058.86717	357.48743	-455.88075	1463.84626	772.36185	-161.17184	1501.85422	664.70011	-156.64252	1464.59096	631.29104	-112.23155	1373.05962	743.95465	-98.03233	1403.97086	631.01703	-111.66394	1371.62229	706.12427	-466.84472	1336.86393	572.57941	-465.54879	1260.04334	736.88864	-466.65254	1231.83846	597.97784	-454.62247	1432.91260	896.43610	-173.88043	1247.00840	905.66822	-240.73488	1428.24815	870.12981	-431.31866	1244.94925	898.43846	-347.36386	1302.93501	1366.74371	-300.81752	1331.39311	1296.95383	-140.61584	1395.80093	1322.05720	-454.35790	1414.41178	1281.02230	-264.96965	1422.06561	1283.71837	-309.12618	1321.41190	1056.18739	-68.04331	1290.16226	950.92336	-128.92100	1292.59064	970.57086	-58.30200	1350.18629	865.42629	-29.01812	1385.30002	752.08055	-18.33168	1345.33695	737.83587	-23.90075	1447.89880	1193.83302	-492.99420	1386.97964	977.31277	-491.10061	1419.67180	991.85785	-540.38327	1489.74129	904.73236	-534.39555	1525.43580	784.94821	-516.83974	1499.21883	769.66216	-541.11031	1367.10977	818.28646	-192.21003	1363.98087	802.68162	-391.85372	1371.45778	805.57550	-203.26287	1368.16333	794.02908	-373.64799	
129	1.28000000	1503.85521	460.71704	-158.57593	1522.64525	389.94072	-137.01844	1523.79802	87.20607	-179.28675	1456.66366	53.49279	-220.51542	1626.27397	44.16710	-152.42289	1670.48343	66.84496	-207.52774	1242.83301	450.00622	-446.36962	1220.76221	383.54237	-452.54035	982.42676	176.86108	-418.36051	915.66236	207.97377	-368.31891	995.73593	63.76042	-427.52150	1052.20504	52.82106	-378.75082	1532.54003	277.96580	-136.64678	1446.89670	382.44923	-147.19493	1450.47690	266.07585	-152.27838	1160.48952	450.63827	-456.61319	1078.72469	360.24604	-456.33937	1476.22524	774.33031	-159.07216	1514.09724	666.67477	-154.08271	1476.19219	633.21502	-110.25546	1384.96457	746.08509	-96.69210	1415.82023	633.19385	-110.31472	1388.60474	707.06657	-465.42521	1356.91460	572.55127	-465.58698	1276.31859	735.20515	-465.76946	1251.11693	595.52122	-455.11025	1445.92528	898.90798	-172.10406	1260.09940	907.59348	-240.96542	1441.87866	871.74505	-429.54114	1258.35751	899.52122	-347.80285	1315.22898	1368.28081	-297.62286	1344.91485	1297.70074	-137.84354	1407.58094	1324.49048	-451.80461	1426.88363	1282.65534	-262.34595	1434.38445	1285.51399	-306.49255	1338.32054	1056.56861	-66.23455	1306.90472	951.31126	-127.29508	1310.00684	970.76760	-56.60827	1366.86186	865.20336	-27.98856	1400.81376	751.46081	-17.70486	1360.76650	737.56407	-22.93353	1458.96606	1196.10036	-491.35044	1397.98092	979.63783	-488.23789	1429.70078	994.30520	-537.90128	1498.69425	906.23890	-533.41660	1532.50949	785.75723	-517.14077	1506.03747	771.12252	-541.50582	1379.90995	820.58983	-190.99313	1378.09365	804.12740	-390.57703	1384.45666	808.38663	-201.02882	1381.67510	795.51942	-371.39011	
130	1.29000000	1513.12085	461.63967	-156.80051	1530.41933	390.28431	-135.23816	1524.27003	87.25278	-179.03745	1456.85482	53.72475	-220.40397	1626.36515	43.79228	-151.82007	1670.88199	65.84701	-207.10265	1266.16060	447.37812	-447.41574	1242.50123	381.42958	-453.36395	996.74832	184.25059	-418.04011	934.05072	220.98871	-367.14739	1001.77427	70.45555	-427.02853	1058.30268	55.23677	-379.65223	1537.58112	278.08104	-135.02277	1454.68070	384.57510	-145.64950	1455.32761	268.31969	-150.94355	1184.41259	450.35437	-457.53776	1099.76744	362.81104	-456.79187	1488.43273	776.07794	-156.84189	1525.72475	668.27250	-151.42061	1487.01152	634.91431	-108.27655	1396.51609	748.28295	-95.48930	1426.98006	635.33613	-109.02954	1405.85446	708.25205	-463.80878	1377.54279	572.65490	-465.48409	1292.78186	733.29611	-465.19021	1271.00267	592.82300	-455.76268	1458.49938	901.73895	-170.22583	1272.90534	909.64984	-241.26820	1455.10011	873.68423	-427.56816	1271.41347	900.89341	-348.29742	1327.40126	1370.06352	-294.73068	1358.27090	1298.96055	-135.39323	1419.26712	1327.24006	-449.41163	1439.28346	1284.54437	-260.01877	1446.60170	1287.56765	-304.15878	1355.34253	1057.56259	-64.60755	1323.77115	952.32877	-125.78883	1327.59072	971.62747	-55.02201	1383.78849	865.69489	-27.03229	1416.57354	751.53344	-17.08756	1376.32429	738.07880	-21.77259	1469.92352	1198.79901	-489.95682	1408.83273	982.42517	-485.34112	1439.51199	997.14488	-535.47764	1507.45469	908.17237	-532.44615	1539.17474	786.97610	-517.18508	1512.62663	773.05348	-541.81924	1392.32322	823.18193	-189.72299	1391.93092	805.86855	-389.24366	1397.25005	811.32492	-198.75746	1394.87382	797.39540	-369.04434	
